<svg width="75" height="75" viewBox="0 0 75 75" fill="none" xmlns="http://www.w3.org/2000/svg">
<g clip-path="url(#clip0_6_5)">
<path d="M37.5 12.5C51.2812 12.5 62.5 23.7188 62.5 37.5C62.5 51.2812 51.2812 62.5 37.5 62.5C23.7188 62.5 12.5 51.2812 12.5 37.5C12.5 23.7188 23.7188 12.5 37.5 12.5ZM37.5 6.25C20.25 6.25 6.25 20.25 6.25 37.5C6.25 54.75 20.25 68.75 37.5 68.75C54.75 68.75 68.75 54.75 68.75 37.5C68.75 20.25 54.75 6.25 37.5 6.25ZM40.625 37.5V28.125C40.625 26.4062 39.2188 25 37.5 25C35.7812 25 34.375 26.4062 34.375 28.125V37.5H28.7812C27.375 37.5 26.6875 39.1875 27.6875 40.1562L36.4062 48.875C37.0312 49.5 38 49.5 38.625 48.875L47.3438 40.1562C48.3125 39.1875 47.625 37.5 46.25 37.5H40.625Z" fill="#1640D6"/>
</g>
<defs>
<clipPath id="clip0_6_5">
<rect width="75" height="75" fill="white"/>
</clipPath>
</defs>
</svg>
