<svg width="30" height="30" viewBox="0 0 30 30" fill="none" xmlns="http://www.w3.org/2000/svg">
<g clip-path="url(#clip0_6_2313)">
<path d="M25 3.75H23.75V2.5C23.75 1.8125 23.1875 1.25 22.5 1.25C21.8125 1.25 21.25 1.8125 21.25 2.5V3.75H8.75V2.5C8.75 1.8125 8.1875 1.25 7.5 1.25C6.8125 1.25 6.25 1.8125 6.25 2.5V3.75H5C3.625 3.75 2.5 4.875 2.5 6.25V26.25C2.5 27.625 3.625 28.75 5 28.75H25C26.375 28.75 27.5 27.625 27.5 26.25V6.25C27.5 4.875 26.375 3.75 25 3.75ZM23.75 26.25H6.25C5.5625 26.25 5 25.6875 5 25V10H25V25C25 25.6875 24.4375 26.25 23.75 26.25Z" fill="#323232"/>
</g>
<defs>
<clipPath id="clip0_6_2313">
<rect width="30" height="30" fill="white"/>
</clipPath>
</defs>
</svg>
