<svg width="30" height="30" viewBox="0 0 30 30" fill="none" xmlns="http://www.w3.org/2000/svg">
<g clip-path="url(#clip0_6_2319)">
<path d="M25 5H5C3.625 5 2.5125 6.125 2.5125 7.5L2.5 22.5C2.5 23.875 3.625 25 5 25H25C26.375 25 27.5 23.875 27.5 22.5V7.5C27.5 6.125 26.375 5 25 5ZM24.5 10.3125L15.6625 15.8375C15.2625 16.0875 14.7375 16.0875 14.3375 15.8375L5.5 10.3125C5.1875 10.1125 5 9.775 5 9.4125C5 8.575 5.9125 8.075 6.625 8.5125L15 13.75L23.375 8.5125C24.0875 8.075 25 8.575 25 9.4125C25 9.775 24.8125 10.1125 24.5 10.3125Z" fill="#323232"/>
</g>
<defs>
<clipPath id="clip0_6_2319">
<rect width="30" height="30" fill="white"/>
</clipPath>
</defs>
</svg>
