<svg width="30" height="32" viewBox="0 0 30 32" fill="none" xmlns="http://www.w3.org/2000/svg">
<path d="M15 0C23.2875 0 30 7.16 30 16C29.9992 19.3524 29.0128 22.6201 27.1797 25.3432C25.3466 28.0664 22.759 30.1077 19.7813 31.18C19.0313 31.34 18.75 30.84 18.75 30.42C18.75 29.88 18.7688 28.16 18.7688 26.02C18.7688 24.52 18.3 23.56 17.7563 23.06C21.0938 22.66 24.6 21.3 24.6 15.16C24.6 13.4 24.0188 11.98 23.0625 10.86C23.2125 10.46 23.7375 8.82 22.9125 6.62C22.9125 6.62 21.6563 6.18 18.7875 8.26C17.5875 7.9 16.3125 7.72 15.0375 7.72C13.7625 7.72 12.4875 7.9 11.2875 8.26C8.41875 6.2 7.1625 6.62 7.1625 6.62C6.3375 8.82 6.8625 10.46 7.0125 10.86C6.05625 11.98 5.475 13.42 5.475 15.16C5.475 21.28 8.9625 22.66 12.3 23.06C11.8688 23.46 11.475 24.16 11.3438 25.2C10.4813 25.62 8.325 26.3 6.975 23.88C6.69375 23.4 5.85 22.22 4.66875 22.24C3.4125 22.26 4.1625 23 4.6875 23.3C5.325 23.68 6.05625 25.1 6.225 25.56C6.525 26.46 7.5 28.18 11.2688 27.44C11.2688 28.78 11.2875 30.04 11.2875 30.42C11.2875 30.84 11.0063 31.32 10.2563 31.18C7.2687 30.1193 4.67013 28.082 2.82917 25.3573C0.988213 22.6325 -0.0016509 19.3586 2.06684e-06 16C2.06684e-06 7.16 6.7125 0 15 0Z" fill="#24292F"/>
</svg>
