<svg width="157" height="27" viewBox="0 0 157 27" fill="none" xmlns="http://www.w3.org/2000/svg">
<path d="M9.26953 14.79C8.48828 13.9795 7.42383 12.6709 6.07617 10.8643C5.12891 9.59473 4.45996 8.75488 4.06934 8.34473C3.67871 7.9248 3.1416 7.44141 2.45801 6.89453C1.5498 6.19141 0.988281 5.68848 0.773438 5.38574C0.568359 5.08301 0.46582 4.76562 0.46582 4.43359C0.46582 4.27734 0.617188 4.07227 0.919922 3.81836C1.22266 3.55469 1.50098 3.42285 1.75488 3.42285C2.35059 3.42285 3.13672 3.87207 4.11328 4.77051C5.08984 5.66895 5.97363 6.61621 6.76465 7.6123C9.17676 10.6689 10.6709 12.3779 11.2471 12.7393C11.8232 12.1045 12.4287 11.4551 13.0635 10.791C16.2861 7.45117 18.249 5.2832 18.9521 4.28711C19.7236 3.21289 20.4902 2.67578 21.252 2.67578C21.5449 2.67578 21.7744 2.81738 21.9404 3.10059C22.1064 3.37402 22.1895 3.65234 22.1895 3.93555C22.1895 4.19922 21.8184 4.76562 21.0762 5.63477C20.3438 6.50391 18.3955 8.58398 15.2314 11.875C13.708 13.457 12.8145 14.4775 12.5508 14.9365C12.2871 15.3955 12.0332 16.7285 11.7891 18.9355C11.5449 21.1426 11.374 22.8711 11.2764 24.1211C11.2178 24.8828 11.1396 25.3125 11.042 25.4102C10.9443 25.5078 10.7393 25.6055 10.4268 25.7031C10.1143 25.8105 9.86523 25.8643 9.67969 25.8643C8.94727 25.8643 8.58105 25.249 8.58105 24.0186C8.58105 23.2568 8.7373 21.9043 9.0498 19.9609C9.34277 18.0957 9.48926 16.8457 9.48926 16.2109C9.48926 15.6543 9.41602 15.1807 9.26953 14.79ZM33.2344 20.0342C33.2344 21.0303 32.3506 22.2314 30.583 23.6377C28.8252 25.0439 27.0088 25.7471 25.1338 25.7471C23.5615 25.7471 22.3457 25.2832 21.4863 24.3555C20.6367 23.4277 20.2119 22.1338 20.2119 20.4736C20.2119 17.6807 21.1543 15.0244 23.0391 12.5049C24.9238 9.98535 26.9844 8.72559 29.2207 8.72559C29.9531 8.72559 30.5488 8.96484 31.0078 9.44336C31.4766 9.92188 31.7109 10.498 31.7109 11.1719C31.7109 12.6758 30.9736 14.1162 29.499 15.4932C28.0244 16.8701 26.0518 18.2227 23.5811 19.5508C23.0732 19.8145 22.8193 20.1562 22.8193 20.5762C22.8193 21.3867 23.0537 22.0361 23.5225 22.5244C23.9912 23.0127 24.6846 23.2568 25.6025 23.2568C27.7021 23.2568 29.8457 22.0947 32.0332 19.7705C32.3555 19.4482 32.5996 19.2871 32.7656 19.2871C33.0781 19.2871 33.2344 19.5361 33.2344 20.0342ZM23.0537 17.749C27.1943 15.2881 29.2646 13.3105 29.2646 11.8164C29.2646 11.2305 29.001 10.9375 28.4736 10.9375C27.5752 10.9375 26.5596 11.5967 25.4268 12.915C24.3037 14.2334 23.5127 15.8447 23.0537 17.749ZM39.2695 19.1846C39.3672 19.0088 39.4844 18.7646 39.6211 18.4521C40.2852 16.9287 40.8955 15.7373 41.4521 14.8779C42.0088 14.0088 42.6191 13.1787 43.2832 12.3877C43.957 11.5967 44.5674 10.9961 45.1143 10.5859C45.6709 10.1758 46.1738 9.89258 46.623 9.73633C47.0723 9.57031 47.5068 9.4873 47.9268 9.4873C48.7764 9.4873 49.4697 9.74609 50.0068 10.2637C50.5439 10.7715 50.8125 11.3672 50.8125 12.0508C50.8125 12.3535 50.7148 12.627 50.5195 12.8711C50.334 13.1152 50.0459 13.2373 49.6553 13.2373C49.2451 13.2373 48.8691 13.0566 48.5273 12.6953C48.1758 12.334 47.8096 12.1533 47.4287 12.1533C46.4131 12.1533 45.0068 13.3838 43.21 15.8447C41.4131 18.3057 40.3193 21.0156 39.9287 23.9746C39.8311 24.7363 39.6455 25.2393 39.3721 25.4834C39.0986 25.7275 38.7129 25.8496 38.2148 25.8496C37.7363 25.8496 37.3896 25.4932 37.1748 24.7803C36.96 24.0674 36.8525 22.8662 36.8525 21.1768C36.8525 20.7178 36.877 19.707 36.9258 18.1445C36.9844 16.2988 37.1016 14.8096 37.2773 13.6768C37.3066 13.4912 37.3555 13.0566 37.4238 12.373C37.4922 11.6211 37.5752 11.0986 37.6729 10.8057C37.7803 10.5127 37.9902 10.2393 38.3027 9.98535C38.625 9.73145 38.9717 9.60449 39.3428 9.60449C39.7041 9.60449 39.9727 9.72168 40.1484 9.95605C40.334 10.1807 40.4268 10.4248 40.4268 10.6885C40.4268 11.0693 40.3291 11.6064 40.1338 12.2998C39.9092 13.0713 39.7773 13.6035 39.7383 13.8965C39.709 14.2285 39.6553 14.5752 39.5771 14.9365C39.4795 15.3564 39.3818 16.46 39.2842 18.2471L39.2695 18.7891V19.1846ZM56.6133 5.38574C56.4082 5.38574 56.252 5.16602 56.1445 4.72656C56.1055 4.58984 56.0518 4.43848 55.9834 4.27246C55.7197 3.6377 55.5879 3.08594 55.5879 2.61719C55.5879 2.22656 55.8174 1.83105 56.2764 1.43066C56.7451 1.02051 57.2627 0.81543 57.8291 0.81543C58.1123 0.81543 58.4297 0.927734 58.7812 1.15234C59.1328 1.36719 59.3086 1.57715 59.3086 1.78223C59.3086 2.10449 59.1865 2.65137 58.9424 3.42285C58.708 4.19434 58.3271 4.7168 57.7998 4.99023C57.2822 5.25391 56.8867 5.38574 56.6133 5.38574ZM54.6943 21.748C54.6943 22.4902 54.7969 23.3252 55.002 24.2529C55.041 24.4287 55.0605 24.5752 55.0605 24.6924C55.0605 24.8682 54.8994 25.0928 54.5771 25.3662C54.2549 25.6494 53.9131 25.791 53.5518 25.791C52.6045 25.791 52.1309 24.9219 52.1309 23.1836C52.1309 21.3867 52.502 18.5449 53.2441 14.6582C53.498 13.3008 53.625 12.4658 53.625 12.1533C53.625 11.5381 53.7373 11.0156 53.9619 10.5859C54.1865 10.1465 54.5039 9.92676 54.9141 9.92676C55.4121 9.92676 55.8027 10.0488 56.0859 10.293C56.3789 10.5273 56.5254 10.791 56.5254 11.084C56.5254 11.377 56.457 11.7627 56.3203 12.2412C55.5879 14.8193 55.1338 16.665 54.958 17.7783C54.7822 18.8916 54.6943 20.2148 54.6943 21.748ZM70.5439 13.7354C70.0361 13.7354 69.4795 14.0674 68.874 14.7314C68.2783 15.3955 67.3652 16.8848 66.1348 19.1992C64.5137 22.3047 63.4639 24.0723 62.9854 24.502C62.5166 24.9316 62.126 25.1465 61.8135 25.1465C60.6611 25.1465 60.085 24.5898 60.085 23.4766C60.085 23.0078 60.1631 22.3438 60.3193 21.4844C60.8564 18.5352 61.125 15.4248 61.125 12.1533C61.125 11.7822 61.2812 11.3721 61.5938 10.9229C61.916 10.4639 62.2188 10.2344 62.502 10.2344C63.0098 10.2344 63.3711 10.3906 63.5859 10.7031C63.8008 11.0156 63.9082 11.6455 63.9082 12.5928C63.9082 13.5791 63.6152 15.6104 63.0293 18.6865C62.834 19.7021 62.7363 20.3467 62.7363 20.6201C62.7363 20.7764 62.7754 20.8545 62.8535 20.8545C63 20.8545 63.6787 19.6875 64.8896 17.3535C66.1104 14.9805 67.1797 13.3105 68.0977 12.3438C69.0156 11.377 70.0264 10.8936 71.1299 10.8936C72.0088 10.8936 72.7217 11.2939 73.2686 12.0947C73.8252 12.8955 74.2305 14.3555 74.4844 16.4746C74.7578 18.8867 75.002 20.3906 75.2168 20.9863C75.4414 21.5723 75.793 21.8652 76.2715 21.8652C76.5742 21.8652 76.9551 21.7578 77.4141 21.543C77.4922 21.5039 77.5508 21.4844 77.5898 21.4844C78.0098 21.4844 78.2197 21.7285 78.2197 22.2168C78.2197 22.6465 77.9316 23.1055 77.3555 23.5938C76.7793 24.0723 76.0859 24.3115 75.2754 24.3115C74.4453 24.3115 73.8008 23.9844 73.3418 23.3301C72.8926 22.666 72.5361 20.9033 72.2725 18.042C71.999 15.1709 71.4229 13.7354 70.5439 13.7354ZM107.78 20.5762C108.161 20.5762 108.352 20.8105 108.352 21.2793C108.352 21.7676 107.81 22.4658 106.726 23.374C105.642 24.2822 104.387 25.0049 102.961 25.542C101.545 26.0791 100.246 26.3477 99.0645 26.3477C97.3359 26.3477 95.7588 25.7764 94.333 24.6338C92.917 23.4912 92.209 21.8359 92.209 19.668C92.209 15.7129 93.9082 11.8652 97.3066 8.125C100.715 4.375 103.996 2.5 107.15 2.5C108.332 2.5 109.274 2.86621 109.978 3.59863C110.69 4.32129 111.047 5.16602 111.047 6.13281C111.047 7.03125 110.993 7.73926 110.886 8.25684C110.788 8.77441 110.48 9.21387 109.963 9.5752C109.445 9.92676 109.03 10.1025 108.718 10.1025C108.493 10.1025 108.298 10.0049 108.132 9.80957C107.966 9.61426 107.883 9.35059 107.883 9.01855C107.883 8.79395 107.966 8.3252 108.132 7.6123C108.298 6.90918 108.381 6.38672 108.381 6.04492C108.381 5.04883 107.946 4.55078 107.077 4.55078C105.729 4.55078 104.06 5.32715 102.067 6.87988C100.085 8.42285 98.4004 10.3857 97.0137 12.7686C95.627 15.1416 94.9336 17.3291 94.9336 19.3311C94.9336 20.6689 95.3291 21.7822 96.1201 22.6709C96.9209 23.5498 98.0586 23.9893 99.5332 23.9893C100.383 23.9893 101.413 23.7793 102.624 23.3594C103.845 22.9297 104.963 22.3584 105.979 21.6455C106.994 20.9326 107.595 20.5762 107.78 20.5762ZM115.852 20.6055C119.484 13.8965 122.478 10.542 124.831 10.542C125.456 10.542 125.964 10.8984 126.354 11.6113C126.745 12.3242 127.062 13.9062 127.307 16.3574C127.551 18.9648 128.103 20.8496 128.962 22.0117C129.401 22.6074 129.621 23.0469 129.621 23.3301C129.621 23.584 129.475 23.8184 129.182 24.0332C128.889 24.248 128.576 24.3555 128.244 24.3555C127.482 24.3555 126.809 23.9307 126.223 23.0811C125.637 22.2217 125.261 20.7178 125.095 18.5693C124.929 16.5381 124.753 15.21 124.567 14.585C124.382 13.96 124.074 13.6475 123.645 13.6475C122.619 13.6475 120.554 16.3281 117.448 21.6895C116.521 23.291 115.837 24.3408 115.397 24.8389C114.958 25.3271 114.558 25.5713 114.196 25.5713C113.767 25.5713 113.405 25.4443 113.112 25.1904C112.819 24.9365 112.673 24.624 112.673 24.2529C112.673 23.9795 112.751 23.4521 112.907 22.6709C114.108 16.4697 115.056 10.3369 115.749 4.27246C115.905 2.85645 116.154 1.91406 116.496 1.44531C116.848 0.976562 117.141 0.742188 117.375 0.742188C117.795 0.742188 118.176 0.913086 118.518 1.25488C118.859 1.59668 119.03 2.07031 119.03 2.67578C119.03 4.47266 118.591 6.93848 117.712 10.0732C117.282 11.626 116.828 13.5986 116.35 15.9912C115.871 18.3838 115.632 19.8633 115.632 20.4297C115.632 20.5469 115.686 20.6055 115.793 20.6055H115.852ZM136.506 25.7324C135.168 25.7324 134.064 25.2246 133.195 24.209C132.326 23.1934 131.892 21.9385 131.892 20.4443C131.892 17.9248 132.736 15.4443 134.426 13.0029C136.125 10.5518 138.156 9.32617 140.52 9.32617C142.082 9.32617 143.347 9.92676 144.313 11.1279C145.29 12.3291 145.778 13.7598 145.778 15.4199C145.778 17.959 144.772 20.3125 142.761 22.4805C140.759 24.6484 138.674 25.7324 136.506 25.7324ZM134.47 20.0635C134.47 21.0498 134.675 21.8555 135.085 22.4805C135.505 23.1055 136.057 23.418 136.74 23.418C138.195 23.418 139.655 22.6221 141.12 21.0303C142.585 19.4287 143.317 17.6514 143.317 15.6982C143.317 14.4971 143.034 13.5254 142.468 12.7832C141.911 12.0312 141.159 11.6553 140.212 11.6553C138.64 11.6553 137.287 12.6221 136.154 14.5557C135.031 16.4795 134.47 18.3154 134.47 20.0635ZM153.908 5.38574C153.703 5.38574 153.547 5.16602 153.439 4.72656C153.4 4.58984 153.347 4.43848 153.278 4.27246C153.015 3.6377 152.883 3.08594 152.883 2.61719C152.883 2.22656 153.112 1.83105 153.571 1.43066C154.04 1.02051 154.558 0.81543 155.124 0.81543C155.407 0.81543 155.725 0.927734 156.076 1.15234C156.428 1.36719 156.604 1.57715 156.604 1.78223C156.604 2.10449 156.481 2.65137 156.237 3.42285C156.003 4.19434 155.622 4.7168 155.095 4.99023C154.577 5.25391 154.182 5.38574 153.908 5.38574ZM151.989 21.748C151.989 22.4902 152.092 23.3252 152.297 24.2529C152.336 24.4287 152.355 24.5752 152.355 24.6924C152.355 24.8682 152.194 25.0928 151.872 25.3662C151.55 25.6494 151.208 25.791 150.847 25.791C149.899 25.791 149.426 24.9219 149.426 23.1836C149.426 21.3867 149.797 18.5449 150.539 14.6582C150.793 13.3008 150.92 12.4658 150.92 12.1533C150.92 11.5381 151.032 11.0156 151.257 10.5859C151.481 10.1465 151.799 9.92676 152.209 9.92676C152.707 9.92676 153.098 10.0488 153.381 10.293C153.674 10.5273 153.82 10.791 153.82 11.084C153.82 11.377 153.752 11.7627 153.615 12.2412C152.883 14.8193 152.429 16.665 152.253 17.7783C152.077 18.8916 151.989 20.2148 151.989 21.748Z" fill="black"/>
</svg>
