<svg width="30" height="30" viewBox="0 0 30 30" fill="none" xmlns="http://www.w3.org/2000/svg">
<g clip-path="url(#clip0_6_2316)">
<path d="M15 15C16.375 15 17.5 13.875 17.5 12.5C17.5 11.125 16.375 10 15 10C13.625 10 12.5 11.125 12.5 12.5C12.5 13.875 13.625 15 15 15ZM15 2.5C20.25 2.5 25 6.525 25 12.75C25 16.725 21.9375 21.4 15.825 26.7875C15.35 27.2 14.6375 27.2 14.1625 26.7875C8.0625 21.4 5 16.725 5 12.75C5 6.525 9.75 2.5 15 2.5Z" fill="#323232"/>
</g>
<defs>
<clipPath id="clip0_6_2316">
<rect width="30" height="30" fill="white"/>
</clipPath>
</defs>
</svg>
